<svg width="63" height="63" viewBox="0 0 63 63" fill="none" xmlns="http://www.w3.org/2000/svg">
    <path fill-rule="evenodd" clip-rule="evenodd" d="M30 61C42.1503 61 52 51.1503 52 39C52 26.8497 42.1503 17 30 17C17.8497 17 8 26.8497 8 39C8 51.1503 17.8497 61 30 61Z" fill="black" fill-opacity="0.01"/>
    <path d="M58 31C58 46.464 45.464 59 30 59C14.536 59 2 46.464 2 31C2 15.536 14.536 3 30 3C45.464 3 58 15.536 58 31Z" fill="#2196F3" stroke="#42A5F5" stroke-width="4"/>
    <mask id="mask0" mask-type="alpha" maskUnits="userSpaceOnUse" x="0" y="1" width="60" height="60">
        <path fill-rule="evenodd" clip-rule="evenodd" d="M30 61C46.5685 61 60 47.5685 60 31C60 14.4315 46.5685 1 30 1C13.4315 1 0 14.4315 0 31C0 47.5685 13.4315 61 30 61Z" fill="white"/>
    </mask>
    <g mask="url(#mask0)">
        <path d="M2.71398 23.875H56.536" stroke="#42A5F5" stroke-width="4" stroke-linecap="square"/>
        <path d="M2.71398 39.625H56.536" stroke="#42A5F5" stroke-width="4" stroke-linecap="square"/>
        <path d="M29.25 5.5C29.25 5.5 19.2878 17.0775 19.5035 31.75C19.7191 46.4225 29.25 56.5 29.25 56.5" stroke="#42A5F5" stroke-width="4" stroke-linecap="round" stroke-linejoin="round"/>
        <path d="M30 5.5C30 5.5 39.9622 17.0775 39.7465 31.75C39.5309 46.4225 30 56.5 30 56.5" stroke="#42A5F5" stroke-width="4" stroke-linecap="round" stroke-linejoin="round"/>
    </g>
    <g filter="url(#filter0_d)">
        <path fill-rule="evenodd" clip-rule="evenodd" d="M40.1946 20.0278C40.3946 19.9123 40.6151 19.8406 40.8456 19.8261C41.8621 19.7621 44.798 19.678 45.4347 20.7809C46.0715 21.8838 44.5298 24.3837 43.966 25.2314C43.8383 25.4235 43.666 25.5784 43.4662 25.6938L37.3904 29.2016L38.2343 46.302C38.2461 46.5414 38.125 46.7679 37.9193 46.8911L36.67 47.6393C36.5055 47.7379 36.3057 47.7586 36.1244 47.696L35.1776 47.369C35.019 47.3143 34.8877 47.2002 34.8114 47.0508L28.3534 34.4192L21.9843 38.0964L21.2974 42.7678C21.2498 43.0912 20.9693 43.3288 20.6426 43.3226L20.1446 43.3132C19.8927 43.3084 19.6663 43.1583 19.5638 42.9282L17.7741 38.9122C16.5439 38.9515 15.3891 38.8306 15.0792 38.294C14.7697 37.7579 15.2429 36.7021 15.893 35.6611L13.3295 32.1301C13.1815 31.9263 13.1648 31.6552 13.2866 31.4347L13.5274 30.9987C13.6854 30.7126 14.0314 30.5886 14.3352 30.709L18.6974 32.4392L25.0779 28.7555L17.4192 16.9267C17.328 16.7858 17.2948 16.6152 17.3267 16.4504L17.517 15.4669C17.5534 15.2786 17.6712 15.116 17.8389 15.0228L19.1115 14.315C19.321 14.1984 19.5777 14.2068 19.7791 14.3368L34.0768 23.5599L40.1946 20.0278Z" fill="white"/>
        <mask id="mask1" mask-type="alpha" maskUnits="userSpaceOnUse" x="5" y="4" width="50" height="51">
            <path fill-rule="evenodd" clip-rule="evenodd" d="M40.1946 20.0278C40.3946 19.9123 40.6151 19.8406 40.8456 19.8261C41.8621 19.7621 44.798 19.678 45.4347 20.7809C46.0715 21.8838 44.5298 24.3837 43.966 25.2314C43.8383 25.4235 43.666 25.5784 43.4662 25.6938L37.3904 29.2016L38.2343 46.302C38.2461 46.5414 38.125 46.7679 37.9193 46.8911L36.67 47.6393C36.5055 47.7379 36.3057 47.7586 36.1244 47.696L35.1776 47.369C35.019 47.3143 34.8877 47.2002 34.8114 47.0508L28.3534 34.4192L21.9843 38.0964L21.2974 42.7678C21.2498 43.0912 20.9693 43.3288 20.6426 43.3226L20.1446 43.3132C19.8927 43.3084 19.6663 43.1583 19.5638 42.9282L17.7741 38.9122C16.5439 38.9515 15.3891 38.8306 15.0792 38.294C14.7697 37.7579 15.2429 36.7021 15.893 35.6611L13.3295 32.1301C13.1815 31.9263 13.1648 31.6552 13.2866 31.4347L13.5274 30.9987C13.6854 30.7126 14.0314 30.5886 14.3352 30.709L18.6974 32.4392L25.0779 28.7555L17.4192 16.9267C17.328 16.7858 17.2948 16.6152 17.3267 16.4504L17.517 15.4669C17.5534 15.2786 17.6712 15.116 17.8389 15.0228L19.1115 14.315C19.321 14.1984 19.5777 14.2068 19.7791 14.3368L34.0768 23.5599L40.1946 20.0278Z" fill="white"/>
        </mask>
        <g mask="url(#mask1)">
            <rect x="34.536" y="21.7839" width="1.30853" height="12.4084" transform="rotate(60 34.536 21.7839)" fill="#EBECF2"/>
            <path fill-rule="evenodd" clip-rule="evenodd" d="M37.9193 46.8911C38.125 46.7679 38.246 46.5415 38.2342 46.302L37.3628 28.6426L28.1264 33.9752L34.8113 47.0508C34.8877 47.2002 35.0189 47.3143 35.1775 47.369L36.1244 47.696C36.3057 47.7587 36.5054 47.7379 36.67 47.6393L37.9193 46.8911Z" fill="#DEE1E3"/>
            <path opacity="0.4" fill-rule="evenodd" clip-rule="evenodd" d="M17.8366 38.8013L17.7476 38.8527L19.5638 42.9282C19.6664 43.1584 19.8928 43.3084 20.1447 43.3132L20.6426 43.3226C20.9694 43.3288 21.2498 43.0912 21.2974 42.7678L22.023 37.8334L21.56 38.1007C21.4167 38.1834 21.2626 38.2452 21.1011 38.2813C20.551 38.4041 19.1548 38.6951 17.8366 38.8013Z" fill="#DEE1E3"/>
            <path fill-rule="evenodd" clip-rule="evenodd" d="M28.2482 34.2134L37.3776 28.9426L37.4768 30.9539L29.9559 37.5538L28.2482 34.2134Z" fill="#C5C6CC"/>
            <path fill-rule="evenodd" clip-rule="evenodd" d="M46.4823 23.9524L16.6913 41.1523C16.6913 41.1523 15.8123 39.5636 15.0793 38.2939C15.0704 38.2786 15.062 38.263 15.0541 38.2473C16.4056 38.345 19.1269 38.2351 21.7661 36.7114L42.3906 24.8038C44.6822 23.4807 45.2435 21.7674 45.5526 21.0309C46.0312 22.316 46.4823 23.9524 46.4823 23.9524Z" fill="#DEE1E3"/>
        </g>
    </g>
    <defs>
        <filter id="filter0_d" x="1.69238" y="0.512878" width="61.1812" height="62.1393" filterUnits="userSpaceOnUse" color-interpolation-filters="sRGB">
            <feFlood flood-opacity="0" result="BackgroundImageFix"/>
            <feColorMatrix in="SourceAlpha" type="matrix" values="0 0 0 0 0 0 0 0 0 0 0 0 0 0 0 0 0 0 127 0"/>
            <feOffset dx="2" dy="2"/>
            <feGaussianBlur stdDeviation="3"/>
            <feColorMatrix type="matrix" values="0 0 0 0 0 0 0 0 0 0 0 0 0 0 0 0 0 0 0.35 0"/>
            <feBlend mode="normal" in2="BackgroundImageFix" result="effect1_dropShadow"/>
            <feBlend mode="normal" in="SourceGraphic" in2="effect1_dropShadow" result="shape"/>
        </filter>
    </defs>
</svg>
